{"accessors":[{"bufferView":0,"byteOffset":0,"componentType":5126,"count":4,"max":[1.52400004863739,0.0,1.52400004863739],"min":[-1.52400004863739,0.0,-1.52400004863739],"normalized":false,"type":"VEC3"},{"bufferView":1,"byteOffset":0,"componentType":5126,"count":4,"max":[1.0,0.0000152590218931437,-0.0000152586571857682,1.0],"min":[1.0,0.0000152590218931437,-0.0000152586571857682,1.0],"normalized":false,"type":"VEC4"},{"bufferView":2,"byteOffset":0,"componentType":5126,"count":4,"max":[-0.0000152586571857682,1.0,0.0000239175878959941],"min":[-0.0000152586571857682,1.0,0.0000239175878959941],"normalized":false,"type":"VEC3"},{"bufferView":3,"byteOffset":0,"componentType":5126,"count":4,"max":[1.0,1.0],"min":[0.0,0.0],"normalized":false,"type":"VEC2"},{"bufferView":4,"byteOffset":0,"componentType":5123,"count":6,"max":[3.0],"min":[0.0],"normalized":false,"type":"SCALAR"},{"bufferView":5,"byteOffset":0,"componentType":5126,"count":2634,"max":[0.868964195251465,2.6377227306366,1.0456554889679],"min":[-1.16005373001099,0.0,-0.983363389968872],"normalized":false,"type":"VEC3"},{"bufferView":6,"byteOffset":0,"componentType":5126,"count":2634,"max":[1.0,0.707149147987366,1.0,1.0],"min":[-1.0,-1.00000011920929,-1.00000011920929,-1.0],"normalized":false,"type":"VEC4"},{"bufferView":7,"byteOffset":0,"componentType":5126,"count":2634,"max":[1.0,1.0,1.0],"min":[-1.0,-0.707139253616333,-1.0],"normalized":false,"type":"VEC3"},{"bufferView":8,"byteOffset":0,"componentType":5126,"count":2634,"max":[1.12500011920929,0.625],"min":[-0.187508627772331,-0.00100135803222656],"normalized":false,"type":"VEC2"},{"bufferView":9,"byteOffset":0,"componentType":5123,"count":4572,"max":[2633.0],"min":[0.0],"normalized":false,"type":"SCALAR"},{"bufferView":10,"byteOffset":0,"componentType":5126,"count":288,"max":[0.868964314460754,2.43481993675232,1.04565513134003],"min":[-1.1600536108017,1.01450836658478,-0.983361840248108],"normalized":false,"type":"VEC3"},{"bufferView":11,"byteOffset":0,"componentType":5126,"count":288,"max":[0.0001220703125,0.0000305817193293478,1.0,1.0],"min":[-1.0,-0.0000305185094475746,-1.0,-1.0],"normalized":false,"type":"VEC4"},{"bufferView":12,"byteOffset":0,"componentType":5126,"count":288,"max":[1.0,0.0000305185094475746,1.0],"min":[-1.0,-0.0000305185094475746,-1.0],"normalized":false,"type":"VEC3"},{"bufferView":13,"byteOffset":0,"componentType":5126,"count":288,"max":[0.12498664855957,0.12498664855957],"min":[0.0,0.0],"normalized":false,"type":"VEC2"},{"bufferView":14,"byteOffset":0,"componentType":5123,"count":432,"max":[287.0],"min":[0.0],"normalized":false,"type":"SCALAR"}],"asset":{"generator":"Godot Engine v4.4.1.stable.official@49a5bc7b616bd04689a2c89e89bda41f50241464","version":"2.0"},"bufferViews":[{"buffer":0,"byteLength":48,"byteOffset":0,"byteStride":12,"target":34962},{"buffer":0,"byteLength":64,"byteOffset":48,"byteStride":16,"target":34962},{"buffer":0,"byteLength":48,"byteOffset":112,"byteStride":12,"target":34962},{"buffer":0,"byteLength":32,"byteOffset":160,"byteStride":8,"target":34962},{"buffer":0,"byteLength":12,"byteOffset":192,"target":34963},{"buffer":0,"byteLength":31608,"byteOffset":204,"byteStride":12,"target":34962},{"buffer":0,"byteLength":42144,"byteOffset":31812,"byteStride":16,"target":34962},{"buffer":0,"byteLength":31608,"byteOffset":73956,"byteStride":12,"target":34962},{"buffer":0,"byteLength":21072,"byteOffset":105564,"byteStride":8,"target":34962},{"buffer":0,"byteLength":9144,"byteOffset":126636,"target":34963},{"buffer":0,"byteLength":3456,"byteOffset":135780,"byteStride":12,"target":34962},{"buffer":0,"byteLength":4608,"byteOffset":139236,"byteStride":16,"target":34962},{"buffer":0,"byteLength":3456,"byteOffset":143844,"byteStride":12,"target":34962},{"buffer":0,"byteLength":2304,"byteOffset":147300,"byteStride":8,"target":34962},{"buffer":0,"byteLength":864,"byteOffset":149604,"target":34963}],"buffers":[{"byteLength":150468,"uri":"Wall0.bin"}],"extensionsUsed":["GODOT_single_root","KHR_materials_emissive_strength"],"images":[{"uri":"textures%2FMaterial_004_albedo.png"},{"uri":"textures%2Fbeton2_002_albedo.png"}],"materials":[{"doubleSided":true,"extensions":{},"name":"Material_004","pbrMetallicRoughness":{"baseColorFactor":[1.0,1.0,1.0,1.0],"baseColorTexture":{"index":0},"metallicFactor":0.0,"roughnessFactor":1.0}},{"doubleSided":true,"extensions":{},"name":"beton2_002","pbrMetallicRoughness":{"baseColorFactor":[1.0,1.0,1.0,1.0],"baseColorTexture":{"index":1},"metallicFactor":0.0,"roughnessFactor":0.400000005960464}},{"doubleSided":true,"emissiveFactor":[1.0,1.0,1.0],"extensions":{"KHR_materials_emissive_strength":{"emissiveStrength":2.0}},"name":"emision_001","pbrMetallicRoughness":{"baseColorFactor":[0.0,0.0,0.0,1.0],"metallicFactor":0.0,"roughnessFactor":0.400000005960464}}],"meshes":[{"extras":{"targetNames":[]},"primitives":[{"attributes":{"NORMAL":2,"POSITION":0,"TANGENT":1,"TEXCOORD_0":3},"indices":4,"material":0,"mode":4}]},{"extras":{"targetNames":[]},"primitives":[{"attributes":{"NORMAL":7,"POSITION":5,"TANGENT":6,"TEXCOORD_0":8},"indices":9,"material":1,"mode":4},{"attributes":{"NORMAL":12,"POSITION":10,"TANGENT":11,"TEXCOORD_0":13},"indices":14,"material":2,"mode":4}]}],"nodes":[{"children":[1,3],"name":"Wall"},{"children":[2],"name":"ground12"},{"mesh":0,"name":"ground1"},{"children":[4],"name":"Building1tile","translation":[0.146744817495346,0.0,-0.0333893895149231]},{"mesh":1,"name":"Cube_005"}],"samplers":[{"magFilter":9728,"minFilter":9986,"wrapS":10497,"wrapT":10497}],"scene":0,"scenes":[{"nodes":[0]}],"textures":[{"sampler":0,"source":0},{"sampler":0,"source":1}]}